{"title":"Ready to Die 2014 DVDrip English Klam","uid":10132006,"size":1860350739,"categoryP":"video","categoryS":"movies","magnet":"?xt=urn:btih:11b0085fbd817912b5036259557ff89ac1e4e8d6&amp;dn=Ready+to+Die+2014+DVDrip+English+Klam&amp;tr=udp%3A%2F%2Ftracker.openbittorrent.com%3A80&amp;tr=udp%3A%2F%2Fopen.demonii.com%3A1337&amp;tr=udp%3A%2F%2Ftracker.coppersurfer.tk%3A6969&amp;tr=udp%3A%2F%2Fexodus.desync.com%3A6969","seeders":1,"leechers":0,"uploader":"Klambake","files":-1,"time":1399891416,"description":"With: Pablo Hernandez, John Azpilicueta and Jacob Martinez\n\nDrie bankovervallers rijden na een gewelddadige bankoverval met de buit door het oosten van Los Angeles. Al snel blijkt dat er mensen zijn die van de overval afweten. Het drietal wordt op de hielen gezeten door bendes en corrupte agenten. Ondertussen zetten ze alles op alles om de buit en zichzelf te beschermen.\n\nWith: After a violent bank robbery, the trio of hoods make their way across East L.A. carrying a blood-soaked bag of money. When word gets out, they must fend off gangs and crooked cops alike as they strive to keep the loot and stay alive.\n &lt;a href=&quot;\nhttp://www.imdb.com/title/tt1290475&quot; rel=&quot;nofollow&quot; target=&quot;_NEW&quot;&gt;\nhttp://www.imdb.com/title/tt1290475&lt;/a&gt;\t\n\n--------------------- Dutch Friends 4ever ---------------------\n---------------------------------------------------------------\n- Bezoek ook eens mijn vrienden op: &lt;a href=&quot; http://www.Film-Test.nl&quot; rel=&quot;nofollow&quot; target=&quot;_NEW&quot;&gt; http://www.Film-Test.nl&lt;/a&gt; --\n----- voor mijn Nederlandse Sync. ondertitels ---- en meer ----\n------- http://www.Film-Test.nl ---- Over Films en meer -------\n---------------------------------------------------------------\n\nGeneral:\n\nComplete name                            : Ready to DieReady to Die.avi\nFormat                                   : AVI\nFormat/Info                              : Audio Video Interleave\nFile size                                : 1.73 GiB\nDuration                                 : 1h 16mn\nOverall bit rate                         : 3 246 Kbps\n\nVideo:\n\nFormat                                   : MPEG-4 Visual\nFormat profile                           : Simple@L3\nFormat settings, BVOP                    : No\nFormat settings, QPel                    : No\nFormat settings, GMC                     : No warppoints\nFormat settings, Matrix                  : Default (H.263)\nCodec ID                                 : XVID\nCodec ID/Hint                            : XviD\nDuration                                 : 1h 16mn\nBit rate                                 : 2 787 Kbps\nWidth                                    : 704 pixels\nHeight                                   : 396 pixels\nDisplay aspect ratio                     : 16:9\nFrame rate                               : 25.000 fps\nColor space                              : YUV\nChroma subsampling                       : 4:2:0\nBit depth                                : 8 bits\nScan type                                : Progressive\nCompression mode                         : Lossy\nBits/(Pixel*Frame)                       : 0.400\nStream size                              : 1.49 GiB (86%)\nWriting library                          : XviD 1.1.2 (UTC 2006-11-01)\n\nAudio:\n\nFormat                                   : AC-3\nFormat/Info                              : Audio Coding 3\nMode extension                           : CM (complete main)\nFormat settings, Endianness              : Big\nCodec ID                                 : 2000\nDuration                                 : 1h 16mn\nSource duration                          : 1h 16mn\nBit rate mode                            : Constant\nBit rate                                 : 448 Kbps\nChannel(s)                               : 6 channels\nChannel positions                        : Front: L C R, Side: L R, LFE\nSampling rate                            : 48.0 KHz\nBit depth                                : 16 bits\nCompression mode                         : Lossy\nStream size                              : 245 MiB (14%)\nAlignment                                : Aligned on interleaves\nInterleave, duration                     : 32 ms (0.80 video frame)\n\n","torrent":{"xt":"urn:btih:11b0085fbd817912b5036259557ff89ac1e4e8d6","amp;dn":"Ready+to+Die+2014+DVDrip+English+Klam","amp;tr":["udp%3A%2F%2Ftracker.openbittorrent.com%3A80","udp%3A%2F%2Fopen.demonii.com%3A1337","udp%3A%2F%2Ftracker.coppersurfer.tk%3A6969","udp%3A%2F%2Fexodus.desync.com%3A6969"],"infoHash":"11b0085fbd817912b5036259557ff89ac1e4e8d6","infoHashBuffer":{"type":"Buffer","data":[17,176,8,95,189,129,121,18,181,3,98,89,85,127,248,154,193,228,232,214]},"announce":[],"urlList":[]}}